<?xml version="1.0" standalone="no"?>
<!DOCTYPE svg PUBLIC "-//W3C//DTD SVG 20010904//EN"
 "http://www.w3.org/TR/2001/REC-SVG-20010904/DTD/svg10.dtd">
<svg version="1.0" xmlns="http://www.w3.org/2000/svg"
 width="673.000000pt" height="673.000000pt" viewBox="0 0 673.000000 673.000000"
 preserveAspectRatio="xMidYMid meet">
<metadata>
Created by potrace 1.11, written by Peter Selinger 2001-2013
</metadata>
<g transform="translate(0.000000,673.000000) scale(0.100000,-0.100000)"
fill="#000000" stroke="none">
<path d="M2090 6723 c-355 -56 -591 -167 -777 -366 l-71 -77 -416 0 -416 0 0
-2905 0 -2905 1469 0 1470 0 36 -55 c73 -110 198 -204 320 -241 33 -10 86 -38
118 -61 211 -154 599 -146 932 19 84 41 212 133 246 176 15 19 30 26 57 27 20
1 51 5 67 9 29 6 35 2 95 -68 62 -72 67 -75 100 -70 19 3 38 8 42 10 5 3 8 61
8 130 l0 124 305 0 305 0 0 2905 0 2905 -1539 0 -1539 0 -47 97 c-39 79 -61
110 -124 172 -131 130 -275 182 -496 180 -66 -1 -131 -4 -145 -6z m333 -119
c151 -36 266 -130 335 -274 88 -182 102 -321 102 -1018 0 -385 -3 -494 -12
-497 -19 -6 -524 -95 -542 -95 -13 0 -16 66 -18 558 l-3 557 -25 49 c-43 85
-103 111 -219 95 -153 -21 -243 -114 -271 -279 -16 -99 -9 -3982 8 -4031 16
-48 51 -97 85 -123 24 -18 43 -21 116 -21 74 0 94 4 143 28 67 33 110 80 141
157 22 55 22 59 25 701 l3 645 272 47 c150 26 278 48 285 47 16 0 17 -1085 1
-1295 -40 -543 -263 -823 -743 -935 -469 -110 -791 13 -913 348 -61 165 -57
16 -60 2257 -3 1435 -1 2079 7 2146 45 396 216 663 525 817 238 118 551 166
758 116z m2254 -649 c231 -73 356 -253 398 -572 12 -89 15 -233 15 -659 0
-299 -4 -544 -8 -544 -5 0 -123 -20 -263 -45 -140 -25 -262 -45 -271 -45 -16
0 -17 39 -20 548 -3 531 -4 548 -24 592 -41 89 -118 127 -232 116 -135 -14
-229 -73 -279 -174 l-28 -57 -3 -2020 c-2 -1839 -1 -2024 14 -2068 34 -103
115 -155 223 -144 157 17 268 104 311 245 19 61 20 93 20 684 l0 620 -27 -6
c-16 -3 -80 -15 -143 -26 -63 -11 -125 -22 -138 -25 l-22 -5 2 297 3 298 435
77 c239 42 447 79 463 82 l27 6 0 -1339 0 -1338 -36 -6 c-39 -7 -41 -6 -180
155 -27 31 -54 57 -60 57 -6 1 -16 -10 -21 -22 -18 -39 -122 -145 -189 -193
-243 -174 -648 -251 -895 -172 -250 81 -381 294 -409 668 -14 184 -14 3847 0
4030 33 431 205 715 536 884 120 61 263 101 469 130 80 12 252 -3 332 -29z
m-3613 -89 c-12 -52 -27 -134 -33 -183 -14 -114 -15 -4036 -1 -4168 24 -227
96 -409 210 -529 78 -82 150 -128 258 -167 l77 -28 -422 0 -423 -1 0 2585 0
2585 179 0 178 0 -23 -94z m2680 38 c-118 -74 -200 -148 -274 -246 -116 -153
-181 -314 -220 -546 -19 -110 -20 -177 -19 -2165 0 -1129 4 -2076 8 -2104 l7
-53 -299 0 -300 0 69 49 c179 125 285 300 345 568 22 95 23 118 26 809 l4 712
-60 -13 c-33 -7 -63 -10 -66 -7 -3 3 -5 68 -5 145 l0 139 -34 34 c-22 22 -44
34 -61 34 -15 0 -117 -16 -228 -36 -435 -76 -428 -74 -447 -143 -6 -22 -10
-277 -10 -667 l0 -630 -27 -55 c-22 -42 -38 -59 -73 -77 -24 -12 -52 -22 -62
-22 -17 0 -18 82 -18 1897 0 1293 3 1916 11 1957 14 80 54 152 107 193 24 18
48 33 53 33 5 0 9 -201 10 -497 0 -359 3 -508 12 -533 7 -21 25 -42 46 -54 33
-19 36 -19 140 -2 58 10 114 20 124 22 15 5 17 -4 17 -80 0 -47 2 -86 6 -86 5
0 193 33 422 73 73 13 135 26 137 29 3 2 5 267 5 589 0 478 -3 601 -15 678 -9
52 -18 98 -21 102 -3 5 170 9 387 9 l392 0 -89 -56z m1916 -2529 l0 -2585
-145 0 -145 0 0 1056 0 1057 -27 -6 c-16 -3 -45 -8 -65 -12 l-38 -7 0 120 c0
146 -5 175 -38 207 -31 31 -72 32 -214 6 -57 -11 -247 -45 -423 -76 -176 -30
-333 -58 -348 -61 l-28 -6 3 894 3 893 24 58 c12 32 37 74 54 93 28 32 112 84
137 84 7 0 10 -162 10 -497 0 -319 4 -512 11 -536 11 -43 56 -77 100 -77 23 0
110 15 207 36 21 4 22 2 22 -81 0 -61 3 -85 13 -85 6 0 134 22 282 48 l270 48
3 509 c3 538 -4 697 -39 833 -22 88 -76 207 -117 261 -16 20 -34 56 -41 81
-28 97 -120 243 -188 299 l-38 31 378 0 377 0 0 -2585z m-1242 -1648 l-3 -574
-30 -49 c-23 -37 -43 -55 -85 -76 -30 -15 -67 -30 -82 -34 l-27 -6 2 638 2
638 90 17 c50 9 100 17 113 18 l22 1 -2 -573z"/>
</g>
</svg>
